<?xml version="1.0" standalone="no"?>
<!DOCTYPE svg PUBLIC "-//W3C//DTD SVG 20010904//EN"
 "http://www.w3.org/TR/2001/REC-SVG-20010904/DTD/svg10.dtd">
<svg version="1.0" xmlns="http://www.w3.org/2000/svg"
 width="720.000000pt" height="720.000000pt" viewBox="0 0 720.000000 720.000000"
 preserveAspectRatio="xMidYMid meet">
<metadata>
Created by potrace 1.11, written by Peter Selinger 2001-2013
</metadata>
<g transform="translate(0.000000,720.000000) scale(0.100000,-0.100000)"
fill="#000000" stroke="none">
<path d="M5071 6674 c-17 -14 -31 -33 -31 -43 0 -18 -73 -139 -111 -184 -20
-23 -36 -30 -92 -38 -38 -5 -78 -14 -90 -21 -12 -6 -37 -11 -55 -10 -35 1
-142 -31 -177 -54 -11 -7 -29 -13 -40 -12 -25 1 -172 -48 -200 -66 -11 -7 -56
-33 -100 -57 -69 -37 -102 -58 -163 -104 -7 -5 -21 -18 -30 -27 -9 -10 -21
-18 -27 -18 -5 -1 -27 -24 -47 -53 -21 -29 -51 -68 -68 -87 -16 -19 -30 -38
-30 -41 0 -3 -11 -11 -24 -17 -14 -6 -44 -37 -68 -69 -24 -32 -46 -59 -50 -61
-5 -2 -8 -10 -8 -18 0 -8 -4 -14 -8 -14 -4 0 -16 -14 -26 -31 -10 -17 -39 -53
-65 -79 -63 -66 -121 -137 -121 -147 0 -5 -12 -20 -26 -34 -14 -13 -35 -39
-46 -59 -29 -47 -55 -76 -173 -192 -55 -54 -114 -106 -132 -116 -18 -9 -64
-34 -104 -55 -40 -21 -83 -47 -97 -58 -14 -10 -31 -19 -38 -19 -7 0 -28 -13
-46 -28 -18 -16 -58 -45 -88 -66 -108 -73 -125 -86 -155 -108 -16 -13 -55 -49
-87 -80 -31 -32 -59 -58 -64 -58 -4 0 -38 -31 -75 -70 -38 -38 -73 -70 -78
-70 -6 0 -16 -8 -23 -18 -9 -13 -25 -19 -54 -18 -26 0 -51 -8 -72 -22 -17 -13
-46 -29 -65 -37 -33 -14 -36 -13 -61 10 -15 14 -40 32 -57 40 -16 9 -29 19
-29 24 0 5 -13 14 -30 21 -16 7 -30 16 -30 20 0 4 -17 16 -37 25 -20 10 -58
33 -84 51 -25 19 -51 34 -56 34 -5 0 -34 19 -64 43 -31 23 -73 51 -95 62 -21
11 -42 24 -45 29 -15 20 -192 112 -284 147 -57 22 -166 38 -218 33 -102 -10
-129 -21 -255 -103 -20 -13 -68 -32 -106 -42 -122 -32 -158 -81 -79 -108 37
-13 47 -13 105 4 34 10 77 28 93 40 43 32 202 80 250 77 61 -5 106 -19 151
-50 23 -15 61 -40 85 -56 24 -16 58 -41 75 -55 55 -46 69 -57 74 -56 3 0 23
-19 45 -42 22 -24 45 -43 51 -43 6 0 33 -25 60 -56 27 -31 69 -70 94 -87 61
-41 138 -123 156 -166 26 -63 24 -133 -8 -223 -6 -15 -10 -31 -10 -35 0 -16
-32 -89 -51 -114 -10 -15 -26 -60 -34 -100 -16 -78 -17 -86 -32 -189 -6 -36
-16 -101 -23 -145 -12 -77 -15 -184 -10 -410 2 -93 -5 -475 -11 -573 -1 -33
-8 -49 -28 -65 -49 -40 -54 -60 -60 -227 -1 -36 -6 -78 -11 -95 -5 -16 -11
-73 -13 -125 -5 -162 -15 -266 -31 -322 -16 -56 -18 -126 -6 -173 5 -16 4 -46
-2 -67 -9 -32 -7 -45 9 -75 11 -20 20 -50 20 -67 0 -43 53 -135 81 -142 13 -3
29 -4 36 -2 7 3 21 -4 32 -14 26 -24 43 -23 57 5 7 12 18 26 25 30 8 4 14 16
14 26 0 10 9 26 20 36 11 10 20 23 20 30 0 7 9 20 19 29 12 11 18 26 15 39 -3
12 -9 56 -13 97 -5 41 -11 86 -14 100 -9 43 -17 150 -22 285 -4 109 -1 145 17
220 11 50 29 102 40 117 10 14 18 30 18 35 0 6 9 18 20 28 11 10 18 21 15 25
-2 3 2 18 10 33 7 14 16 39 20 56 3 17 15 48 25 69 11 22 20 56 22 76 1 20 5
36 9 36 4 0 9 10 12 23 11 41 53 151 86 222 18 39 35 78 37 88 11 59 42 110
45 75 0 -7 2 -35 4 -63 2 -27 7 -77 11 -110 9 -70 9 -226 1 -270 -3 -16 -6
-33 -6 -36 -1 -3 -12 -19 -26 -35 -21 -25 -25 -38 -23 -90 1 -33 -1 -64 -4
-70 -3 -5 -2 -34 4 -64 5 -30 10 -102 10 -160 0 -58 4 -114 8 -125 4 -12 11
-75 15 -141 3 -65 9 -146 12 -179 2 -33 4 -69 4 -80 -1 -11 -1 -33 -2 -50 0
-16 9 -52 21 -78 17 -39 25 -47 41 -42 23 8 27 -20 3 -29 -21 -8 -10 -23 36
-46 46 -24 130 -28 130 -6 0 8 7 16 15 20 8 3 15 12 15 20 0 8 5 16 11 18 7 2
13 20 14 39 1 20 10 48 20 63 10 15 15 29 12 33 -4 3 -2 14 4 24 9 18 -1 54
-20 69 -10 8 -31 59 -58 140 -26 76 -28 115 -17 285 8 132 11 163 18 173 3 6
10 30 15 54 5 24 19 68 31 98 29 75 81 221 87 245 2 11 6 34 9 50 3 17 7 37
10 45 3 8 7 35 10 60 2 25 10 61 18 80 19 46 59 171 61 190 1 8 7 26 12 40 6
14 9 29 6 33 -3 4 0 13 5 20 5 7 12 33 15 58 6 46 13 65 69 186 15 34 28 66
28 70 0 8 47 69 115 151 27 32 126 98 167 111 120 38 164 53 180 62 10 5 39
12 66 15 26 2 58 6 72 9 102 17 145 27 213 48 42 14 77 23 77 20 0 -3 15 6 33
19 17 14 48 30 68 37 40 13 66 38 93 91 10 20 30 44 45 55 67 48 161 136 382
358 131 130 242 237 246 237 4 0 49 14 98 31 179 60 195 63 235 43 19 -11 37
-22 40 -25 7 -8 53 -33 63 -34 4 0 11 -5 15 -11 14 -21 99 -64 144 -72 37 -7
52 -5 89 13 85 43 206 110 248 138 40 27 59 38 160 95 42 23 49 24 104 14 35
-7 69 -20 83 -33 16 -15 34 -21 61 -20 21 1 79 4 128 5 77 3 108 8 180 30 32
9 65 31 70 46 3 10 6 34 7 55 2 50 29 66 117 69 62 1 73 5 99 29 16 15 33 27
38 26 5 -1 15 -1 21 0 16 1 74 81 68 91 -3 4 6 19 20 31 35 34 34 84 -4 124
-32 32 -81 123 -81 148 0 29 -28 47 -56 37 -20 -8 -33 -6 -55 7 -28 17 -31 16
-112 -11 -75 -26 -88 -27 -121 -16 -21 6 -45 10 -55 7 -10 -2 -34 4 -54 13
-29 15 -39 15 -54 5 -19 -13 -160 -17 -168 -5 -2 4 9 21 25 39 31 33 34 40 30
79 -1 12 4 22 11 22 6 0 28 17 47 38 20 20 40 36 45 34 5 -2 7 4 4 12 -4 9 1
20 11 26 13 7 14 12 5 18 -7 4 -15 25 -18 45 -5 29 -1 43 14 63 37 47 20 119
-48 198 -62 72 -142 202 -149 241 -9 45 -45 96 -110 151 -97 83 -110 103 -110
177 -1 76 -10 139 -21 150 -4 4 -20 -8 -34 -27 -15 -18 -49 -45 -77 -59 l-51
-25 -57 29 c-31 17 -58 32 -60 33 -1 2 -5 27 -8 56 -7 70 -25 112 -68 155 -42
42 -55 43 -95 9z m249 -1389 c7 -8 16 -13 20 -10 4 3 13 -2 20 -10 14 -17 32
-14 102 17 29 13 56 18 71 14 32 -8 87 -53 87 -72 0 -14 -6 -15 -77 -16 -21 0
-42 -4 -48 -8 -5 -4 -37 -11 -70 -14 -80 -9 -104 5 -120 67 -12 48 -7 59 15
32z"/>
<path d="M2010 1300 c0 -5 5 -10 10 -10 6 0 10 5 10 10 0 6 -4 10 -10 10 -5 0
-10 -4 -10 -10z"/>
<path d="M1890 1139 c0 -5 5 -7 10 -4 6 3 10 8 10 11 0 2 -4 4 -10 4 -5 0 -10
-5 -10 -11z"/>
</g>
</svg>
