<?xml version="1.0" standalone="no"?>
<!DOCTYPE svg PUBLIC "-//W3C//DTD SVG 20010904//EN"
 "http://www.w3.org/TR/2001/REC-SVG-20010904/DTD/svg10.dtd">
<svg version="1.0" xmlns="http://www.w3.org/2000/svg"
 width="1280.000000pt" height="1280.000000pt" viewBox="0 0 1280.000000 1280.000000"
 preserveAspectRatio="xMidYMid meet">
<metadata>
Created by potrace 1.11, written by Peter Selinger 2001-2013
</metadata>
<g transform="translate(0.000000,1280.000000) scale(0.100000,-0.100000)"
fill="#000000" stroke="none">
<path d="M8579 12478 c0 -18 -2 -42 -4 -53 -2 -11 -7 -47 -10 -80 -4 -33 -8
-62 -10 -65 -2 -3 -6 -26 -10 -50 -8 -57 -40 -175 -72 -265 -157 -436 -470
-736 -941 -899 -93 -32 -193 -61 -247 -72 -11 -2 -29 -6 -40 -8 -157 -31 -292
-51 -385 -56 -72 -3 -73 -3 -65 28 12 47 14 57 34 202 9 64 7 341 -2 390 -3
14 -8 43 -12 65 -11 68 -65 217 -102 285 -84 153 -214 292 -373 399 -89 59
-257 147 -266 138 -3 -2 8 -26 23 -53 79 -134 162 -352 189 -489 2 -11 6 -31
9 -45 27 -123 19 -342 -17 -475 -5 -22 -11 -45 -12 -52 -1 -7 -5 -16 -9 -19
-4 -4 -7 -14 -7 -22 0 -39 -148 -312 -196 -359 -8 -8 -14 -19 -14 -24 0 -24
-285 -292 -400 -377 -69 -51 -129 -96 -135 -100 -22 -17 -194 -122 -246 -151
l-56 -31 -22 92 c-56 230 -155 462 -272 639 -68 101 -219 261 -309 326 -151
109 -343 197 -510 234 -25 5 -54 12 -65 16 -11 3 23 -36 75 -88 111 -111 148
-151 216 -239 173 -222 274 -438 319 -685 15 -79 21 -282 10 -335 -3 -14 -7
-45 -10 -69 -18 -147 -101 -373 -199 -544 -28 -48 -59 -103 -69 -122 -10 -19
-23 -35 -28 -35 -5 0 -9 -5 -9 -11 0 -6 -24 -43 -52 -81 l-53 -71 -20 49 c-30
76 -121 249 -171 325 -67 103 -126 174 -228 274 -189 185 -421 313 -711 390
-53 14 -101 23 -106 20 -5 -4 -9 -2 -9 2 0 5 -8 9 -17 10 -35 1 -117 14 -125
19 -4 3 -8 0 -8 -6 0 -7 9 -14 20 -17 11 -3 20 -9 20 -14 0 -5 4 -9 10 -9 5 0
18 -6 27 -14 10 -8 47 -36 83 -63 36 -26 70 -52 76 -58 6 -5 40 -35 75 -65 75
-65 228 -220 283 -287 22 -27 60 -79 85 -118 25 -38 49 -72 53 -75 14 -11 128
-258 152 -332 24 -72 49 -172 62 -256 15 -97 15 -341 0 -457 -22 -167 -107
-495 -128 -495 -4 0 -16 19 -27 43 -75 164 -239 367 -416 515 -59 49 -225 153
-315 197 -52 25 -103 50 -113 56 -11 6 5 -33 46 -113 65 -128 137 -286 182
-398 14 -36 30 -74 36 -85 38 -81 187 -583 205 -695 3 -19 8 -38 9 -41 4 -6
12 -50 39 -214 30 -183 41 -282 51 -445 6 -90 26 -177 70 -300 31 -86 52 -188
49 -242 -1 -33 -8 -92 -19 -168 -3 -20 -40 -169 -59 -240 -3 -8 -18 -77 -35
-153 -39 -176 -40 -178 -77 -134 -81 96 -118 151 -179 275 -38 75 -54 100 -58
86 -16 -57 -38 -195 -52 -324 -13 -128 -16 -198 -20 -440 -3 -140 -8 -313 -12
-385 -15 -280 -9 -431 22 -530 81 -263 246 -449 487 -551 l77 -33 -1 100 c0
55 2 102 5 105 2 3 38 -6 79 -20 95 -31 153 -40 258 -40 120 0 195 13 305 54
59 21 196 87 209 100 9 9 -13 17 -74 24 -142 17 -285 72 -400 155 -89 64 -226
235 -214 266 5 11 17 8 58 -15 61 -34 173 -75 231 -84 22 -4 55 -9 73 -12 68
-11 244 -6 327 10 50 9 111 20 117 20 23 2 16 16 -8 16 -30 0 -95 15 -129 30
-192 82 -312 183 -427 358 -57 85 -51 102 18 55 107 -73 213 -103 349 -99 87
2 219 30 258 53 5 3 -15 16 -44 29 -68 32 -174 140 -219 224 -62 115 -121 271
-113 300 7 25 17 25 78 -3 116 -54 188 -70 315 -71 91 0 121 3 184 19 28 8 28
8 -28 35 -77 38 -119 72 -165 133 -42 56 -101 168 -121 230 -11 34 -10 41 12
73 17 26 28 33 43 29 88 -27 190 -35 250 -21 17 4 43 10 60 12 32 6 138 47
195 76 27 13 30 18 15 19 -126 9 -241 47 -328 106 l-38 26 33 35 c151 158 351
229 508 181 51 -16 159 -71 164 -84 2 -6 -32 -67 -76 -134 -44 -68 -90 -142
-103 -164 -36 -64 -178 -347 -197 -392 -41 -100 -51 -125 -78 -205 -33 -99
-56 -181 -65 -229 -3 -19 -10 -41 -14 -50 -10 -20 -37 -130 -47 -191 -14 -89
-8 -403 10 -520 2 -14 7 -52 10 -85 4 -33 9 -82 12 -110 53 -507 -34 -839
-311 -1186 -37 -46 -72 -89 -79 -94 -57 -52 -44 -55 18 -4 160 129 300 278
379 402 57 88 118 227 132 298 11 55 17 86 24 129 l7 45 32 -60 c17 -33 47
-87 67 -120 19 -33 40 -70 47 -82 6 -13 15 -23 20 -23 4 0 8 -5 8 -11 0 -21
184 -263 285 -374 l36 -40 -26 40 c-14 22 -28 47 -32 55 -4 8 -28 52 -54 97
-27 46 -66 122 -89 170 -23 49 -45 96 -50 105 -50 91 -153 423 -175 558 -3 19
-7 49 -10 65 -20 111 -26 414 -11 515 23 154 39 228 81 372 19 66 189 399 207
406 4 2 8 8 8 13 0 20 163 271 258 397 30 40 58 70 63 65 9 -9 74 -255 83
-318 4 -22 11 -56 16 -75 25 -97 23 -110 -19 -146 -73 -65 -185 -128 -246
-140 -11 -2 -33 -8 -50 -13 l-30 -8 29 -12 c91 -36 192 -34 310 8 l54 19 5
-24 c3 -17 -4 -31 -27 -51 -99 -88 -212 -134 -333 -135 -40 0 -73 -4 -73 -7 0
-4 17 -23 38 -42 98 -94 191 -129 335 -126 94 2 97 1 97 -20 0 -30 -57 -66
-184 -117 -79 -32 -184 -54 -275 -58 -23 -1 -41 -4 -41 -8 0 -12 112 -58 172
-70 89 -18 189 -15 301 10 56 12 43 -7 -39 -58 -58 -35 -187 -103 -204 -107
-3 -1 -18 -7 -35 -14 -78 -31 -172 -59 -222 -67 -21 -3 -54 -9 -73 -13 -19 -4
-60 -7 -91 -7 -55 1 -56 1 -41 -19 23 -31 112 -100 157 -123 66 -33 148 -53
227 -54 98 -2 178 5 178 16 0 5 3 7 6 4 5 -6 100 14 135 27 14 5 14 0 4 -52
-7 -35 -9 -65 -3 -75 13 -26 130 -51 228 -49 103 1 249 106 395 284 116 141
124 151 119 156 -3 3 -26 5 -52 6 -198 4 -255 177 -187 570 2 11 11 54 20 95
9 41 19 86 22 100 2 14 6 30 7 35 1 6 5 19 9 30 3 11 8 31 11 45 3 14 30 115
60 225 31 110 58 207 60 215 2 8 27 96 55 195 95 338 124 485 108 545 -10 41
-40 92 -94 165 -109 148 -152 245 -176 400 -42 276 35 630 181 823 178 238
456 422 697 461 57 9 299 8 358 -3 335 -57 570 -206 704 -446 59 -105 95 -204
128 -358 13 -56 17 -84 30 -187 5 -43 6 -385 1 -415 -3 -14 -7 -54 -10 -90
-19 -198 -89 -502 -156 -670 -12 -30 -23 -59 -25 -65 -7 -32 -79 -194 -140
-316 -192 -388 -444 -725 -710 -953 -16 -14 -43 -37 -60 -51 -16 -14 -56 -42
-87 -63 -31 -20 -57 -40 -58 -45 0 -4 34 -5 75 -2 263 17 513 97 760 243 195
115 418 288 575 445 43 42 70 61 56 39 -2 -4 -7 -69 -11 -145 -3 -75 -8 -145
-10 -155 -1 -9 -6 -52 -10 -94 -3 -43 -8 -88 -10 -100 -2 -13 -9 -59 -15 -103
-7 -44 -14 -87 -15 -96 -2 -9 -6 -33 -9 -53 -3 -21 -15 -78 -27 -129 -11 -51
-23 -105 -26 -122 -12 -69 -108 -370 -160 -500 -200 -504 -484 -916 -879
-1275 -49 -45 -217 -180 -264 -213 -291 -204 -559 -346 -880 -467 -73 -28
-140 -52 -149 -54 -9 -1 -54 -14 -101 -29 -85 -26 -308 -83 -365 -92 -16 -3
-52 -10 -80 -15 -27 -5 -66 -12 -85 -15 -19 -3 -46 -7 -60 -10 -14 -2 -52 -7
-85 -11 -33 -3 -73 -7 -90 -9 -196 -25 -662 -25 -835 0 -14 2 -52 6 -85 10
-32 4 -68 9 -80 11 -11 2 -33 6 -50 8 -16 2 -41 7 -55 10 -14 3 -36 8 -50 10
-100 17 -405 109 -468 142 -15 7 -32 14 -37 14 -10 0 -102 38 -220 89 -232
102 -551 278 -745 409 -98 67 -300 217 -335 249 -11 10 -33 29 -50 42 -100 77
-354 323 -470 455 -87 98 -98 111 -116 133 -331 407 -568 796 -789 1298 -155
352 -317 845 -406 1235 -32 139 -45 196 -50 215 -2 11 -7 36 -10 55 -3 19 -7
42 -10 50 -3 8 -7 27 -9 42 -2 15 -9 55 -16 90 -6 35 -13 72 -15 83 -1 11 -3
20 -4 20 -1 0 -3 14 -5 30 -2 17 -5 44 -8 60 -8 48 -27 167 -32 205 -2 19 -6
46 -9 60 -6 33 -16 123 -22 185 -2 28 -6 59 -9 70 -2 11 -7 56 -10 100 -4 44
-8 91 -10 104 -3 13 -7 67 -11 120 -4 53 -8 98 -10 100 -3 3 -15 -23 -45 -94
-86 -205 -212 -638 -243 -835 -3 -19 -8 -46 -11 -60 -2 -13 -7 -42 -10 -65 -3
-22 -8 -47 -10 -55 -5 -20 -24 -192 -33 -300 -14 -186 -7 -661 13 -815 13 -96
17 -133 20 -160 4 -44 23 -153 51 -290 20 -101 34 -160 68 -295 105 -413 338
-960 589 -1380 171 -286 441 -661 637 -885 155 -176 226 -252 360 -385 241
-240 440 -414 665 -581 66 -49 126 -94 132 -99 32 -26 309 -203 398 -255 226
-129 513 -252 730 -310 28 -7 93 -25 145 -39 52 -14 106 -28 120 -31 14 -2 68
-13 120 -24 135 -28 263 -49 395 -66 93 -12 110 -14 190 -20 44 -4 89 -9 100
-11 95 -18 787 -26 1020 -11 144 9 216 15 270 22 22 3 65 7 95 10 89 8 154 16
170 20 8 2 44 7 80 10 35 4 67 8 70 10 3 1 25 6 50 9 25 3 56 8 70 11 29 6
121 23 165 30 17 3 37 8 45 10 8 2 31 7 50 10 19 3 73 15 120 26 47 12 92 22
102 24 9 2 88 22 175 45 517 136 1096 371 1538 625 55 31 116 66 135 77 19 11
54 33 77 49 23 16 46 29 52 29 6 0 11 5 11 10 0 6 5 10 10 10 10 0 69 38 80
51 3 3 16 12 29 19 20 10 107 70 156 108 6 4 53 39 105 77 52 39 110 84 130
100 20 17 56 46 80 65 24 19 48 40 54 45 6 6 49 44 96 85 90 78 371 357 455
450 81 90 158 180 174 203 8 12 18 24 21 27 3 3 24 28 45 55 22 28 42 52 45
55 8 8 64 82 83 110 9 14 35 50 57 80 40 56 197 289 215 322 6 9 29 48 51 85
23 37 51 85 63 106 12 21 40 71 62 110 50 87 244 482 254 517 4 14 11 30 15
35 10 12 140 336 140 347 0 5 9 27 19 51 46 103 172 508 238 767 35 138 38
149 50 210 4 19 8 37 8 40 11 51 29 120 32 120 9 0 86 -53 139 -96 193 -153
340 -360 405 -569 11 -38 23 -77 26 -85 7 -22 83 222 99 320 3 14 9 48 14 75
16 81 17 87 24 150 3 33 9 78 12 100 4 22 7 108 8 190 3 232 -18 437 -64 640
-5 22 -13 60 -19 85 -11 49 -55 196 -91 300 -64 183 -207 489 -317 673 -29 48
-53 92 -53 97 0 6 -4 10 -10 10 -5 0 -10 4 -10 9 0 10 -186 291 -259 392 l-41
57 37 8 c21 4 40 8 43 8 3 1 10 4 15 7 9 6 62 18 105 25 8 1 26 5 40 8 102 23
164 28 315 29 195 2 341 -24 490 -84 38 -16 73 -29 77 -29 9 0 -20 124 -54
225 -35 103 -127 305 -140 305 -4 0 -8 5 -8 11 0 23 -117 173 -198 256 -148
150 -297 247 -542 355 -39 18 -212 78 -238 83 -9 2 -51 12 -92 23 -69 19 -185
43 -285 58 -22 3 -47 8 -55 9 -8 2 -18 4 -21 4 -3 1 35 43 86 95 108 110 196
221 291 366 72 111 188 331 219 415 10 28 28 75 41 105 22 53 42 115 79 245 9
33 21 70 26 83 12 30 5 28 -55 -15 -157 -113 -387 -216 -536 -239 -19 -3 -54
-9 -76 -13 -48 -9 -250 -7 -309 3 -22 4 -69 14 -104 22 -36 9 -72 17 -80 19
-43 10 -158 58 -249 104 l-100 52 35 82 c20 45 40 91 44 102 41 92 103 341
117 470 13 121 5 486 -12 513 -3 5 -7 26 -10 48 -3 21 -9 51 -13 67 -8 26 -11
22 -51 -58 -24 -46 -47 -87 -53 -90 -5 -4 -9 -15 -9 -25 0 -10 -4 -20 -8 -22
-5 -1 -26 -30 -47 -63 -96 -147 -268 -335 -388 -424 -105 -77 -304 -182 -372
-195 -5 -2 -35 -10 -65 -20 -30 -9 -71 -19 -90 -22 -19 -3 -37 -7 -41 -9 -15
-10 -169 -20 -294 -20 -138 0 -203 5 -320 26 -33 5 -69 12 -80 14 -31 5 -79
17 -87 22 -7 4 39 100 61 127 13 17 91 195 116 266 129 366 101 707 -85 1036
-56 98 -136 217 -151 222 -5 2 -9 -11 -10 -30z m-4441 -4620 c89 -229 122
-390 117 -573 -6 -232 -78 -402 -244 -576 l-69 -72 -26 28 c-14 15 -26 34 -26
41 0 8 -4 14 -8 14 -5 0 -18 28 -30 63 -45 132 -21 244 113 532 104 222 146
363 149 492 0 45 3 83 6 83 3 0 11 -15 18 -32z"/>
</g>
</svg>
