<?xml version="1.0" standalone="no"?>
<!DOCTYPE svg PUBLIC "-//W3C//DTD SVG 20010904//EN"
 "http://www.w3.org/TR/2001/REC-SVG-20010904/DTD/svg10.dtd">
<svg version="1.0" xmlns="http://www.w3.org/2000/svg"
 width="512.000000pt" height="512.000000pt" viewBox="0 0 512.000000 512.000000"
 preserveAspectRatio="xMidYMid meet">
<metadata>
Created by potrace 1.11, written by Peter Selinger 2001-2013
</metadata>
<g transform="translate(0.000000,512.000000) scale(0.100000,-0.100000)"
fill="#000000" stroke="none">
<path d="M2368 4870 c-565 -47 -1094 -298 -1483 -701 -821 -853 -872 -2185
-118 -3091 363 -436 849 -714 1413 -810 151 -25 438 -35 595 -19 564 57 1077
307 1463 716 354 375 573 856 623 1370 16 161 6 446 -20 600 -120 705 -540
1300 -1168 1654 -378 213 -864 317 -1305 281z m664 -344 c14 -20 8 -79 -9 -98
-19 -22 -51 -23 -79 -4 -11 8 -33 16 -49 18 -23 2 -31 9 -33 27 -5 30 3 37 69
61 53 19 87 18 101 -4z m196 -18 c20 -17 14 -48 -18 -80 -27 -27 -36 -30 -73
-25 -68 9 -87 58 -41 104 22 22 30 24 72 18 26 -4 53 -12 60 -17z m-394 -49
c-2 -88 -128 -172 -155 -103 -8 23 -5 33 18 67 34 48 79 78 113 75 22 -3 25
-8 24 -39z m519 -34 c39 -27 47 -54 22 -75 -23 -19 -18 -39 10 -46 24 -6 75
-56 75 -74 0 -5 -12 -23 -26 -40 l-27 -31 26 -27 c40 -43 39 -67 -5 -111 l-32
-31 17 -36 17 -35 -41 -47 c-22 -26 -47 -50 -54 -55 -14 -7 -59 6 -68 20 -11
18 33 127 60 148 23 19 25 25 15 38 -13 15 -6 85 13 129 5 13 0 19 -20 24 -25
6 -26 9 -23 63 l3 56 -32 3 c-28 3 -34 8 -43 40 -15 55 -13 69 16 91 35 27 51
26 97 -4z m-704 -48 c6 -8 8 -34 4 -68 -5 -40 -13 -61 -34 -81 -32 -33 -50
-35 -73 -9 -12 13 -16 32 -14 62 3 38 9 47 46 76 49 37 55 39 71 20z m291
-197 c4 -19 13 -26 38 -28 44 -4 57 -31 37 -79 -9 -20 -23 -46 -33 -56 -26
-29 -87 -57 -126 -57 -28 0 -35 4 -38 23 -5 34 31 167 54 199 25 36 59 35 68
-2z m-392 -10 c26 -24 26 -47 4 -115 -16 -46 -20 -50 -53 -53 -51 -4 -59 10
-49 93 11 93 48 121 98 75z m20 -237 c34 -47 21 -113 -28 -133 -23 -10 -35 -9
-64 5 -20 10 -39 22 -42 27 -10 16 6 97 23 114 21 21 92 13 111 -13z m-812
-11 c32 -17 52 -45 64 -92 7 -25 18 -57 25 -71 18 -35 4 -95 -38 -159 -41 -63
-76 -80 -166 -80 -63 0 -75 3 -96 25 -33 32 -32 53 3 60 131 25 155 39 192
107 20 39 22 50 12 72 -13 28 -78 66 -115 66 -29 0 -76 -20 -132 -55 -47 -30
-100 -55 -115 -55 -23 0 -7 47 32 94 52 62 82 88 119 101 32 12 185 3 215 -13z
m254 -13 c34 -19 39 -20 66 -6 38 19 105 30 122 18 20 -12 27 -159 10 -190
-17 -33 -105 -78 -120 -63 -8 8 -4 21 15 50 29 41 35 77 15 84 -22 9 -38 -3
-53 -38 -18 -44 -30 -43 -54 4 -22 43 -63 83 -108 106 -63 31 -55 56 19 56 33
0 63 -7 88 -21z m954 -10 c42 -25 45 -47 11 -77 -29 -25 -35 -26 -70 -10 -28
12 -32 41 -13 83 14 30 26 31 72 4z m145 -76 c15 -54 0 -83 -44 -83 -43 0 -75
15 -75 36 0 38 67 98 97 87 7 -3 17 -21 22 -40z m139 15 c16 -16 15 -60 -1
-81 -6 -10 -29 -20 -49 -23 -33 -6 -39 -4 -49 19 -6 14 -9 36 -5 50 9 38 78
61 104 35z m-1572 -53 c32 -48 0 -105 -60 -105 -61 0 -94 37 -75 86 18 48 108
61 135 19z m282 -37 c6 -8 16 -44 22 -82 10 -66 10 -69 -15 -102 -14 -19 -34
-34 -44 -34 -10 0 -34 -6 -52 -14 -35 -14 -59 -12 -59 6 0 5 13 28 30 51 40
57 58 105 55 147 -5 58 26 72 63 28z m702 5 c33 -22 40 -33 40 -65 0 -49 -85
-97 -126 -70 -7 4 -17 26 -24 50 -9 34 -8 47 1 60 35 46 68 53 109 25z m-1335
-63 l10 -64 75 -57 c78 -59 130 -134 130 -185 0 -34 -19 -29 -65 17 -70 70
-201 133 -229 110 -16 -13 -10 -48 11 -72 8 -10 34 -22 59 -28 51 -13 55 -25
17 -45 -16 -8 -41 -28 -57 -45 -37 -38 -63 -40 -77 -4 -5 15 -28 46 -49 70
-22 23 -40 49 -40 56 0 7 -13 26 -30 42 -44 42 -40 70 22 128 28 26 65 54 82
61 17 8 49 30 71 49 22 20 45 35 50 33 6 -1 15 -31 20 -66z m197 1 c47 -42 29
-56 -64 -52 -80 3 -88 5 -88 27 0 16 72 53 102 54 10 0 32 -13 50 -29z m1344
-26 c28 -19 21 -57 -18 -107 -32 -41 -48 -45 -109 -28 -27 8 -39 17 -43 35
-19 75 104 147 170 100z m-613 -83 c45 -49 62 -143 35 -197 -8 -17 -18 -42
-22 -57 -8 -36 -46 -79 -118 -134 -70 -53 -127 -80 -192 -89 -64 -10 -62 13 7
63 105 78 188 220 207 357 7 44 14 83 16 87 7 12 42 -4 67 -30z m-133 2 c6
-14 13 -49 16 -78 9 -78 -14 -122 -81 -152 -67 -29 -125 -41 -125 -24 0 6 17
32 39 58 21 26 57 86 79 135 22 48 46 87 52 87 6 0 15 -12 20 -26z m930 -4
c50 -27 44 -78 -14 -118 -40 -27 -70 -28 -125 -2 -48 24 -57 39 -42 69 24 45
135 76 181 51z m-1105 -89 c9 -16 -52 -78 -99 -100 -47 -23 -122 -27 -172 -8
-47 19 -91 54 -79 65 6 6 71 16 145 22 74 7 144 16 155 20 27 12 43 12 50 1z
m1355 -37 c22 -15 40 -32 40 -39 0 -16 -100 -115 -115 -115 -7 0 -20 9 -30 20
-10 11 -42 28 -72 37 -29 9 -53 22 -53 28 0 6 11 27 25 46 19 24 36 36 63 40
76 12 102 9 142 -17z m546 -52 c22 -11 47 -28 54 -37 12 -15 12 -19 -5 -31
-11 -8 -26 -11 -35 -8 -8 4 -44 9 -79 12 l-64 5 8 -39 c4 -22 8 -61 9 -87 2
-40 23 -99 65 -186 4 -8 23 -20 42 -26 28 -10 35 -17 37 -43 3 -26 -6 -40 -65
-99 -37 -37 -74 -77 -80 -88 -13 -19 -13 -19 -25 -1 -7 10 -22 30 -33 44 -11
14 -25 44 -32 66 -6 23 -11 33 -12 23 -2 -37 -31 -77 -56 -77 -36 0 -74 20
-81 43 -8 25 26 128 45 135 9 3 30 -12 54 -39 31 -34 38 -38 31 -19 -5 14 -7
48 -5 75 5 56 4 184 -1 293 -3 68 -1 75 22 94 21 17 35 20 95 16 43 -3 85 -13
111 -26z m-416 -91 c42 -25 45 -31 53 -81 9 -66 3 -74 -75 -94 -31 -8 -66 -19
-77 -25 -41 -22 -48 -15 -55 57 -11 110 -9 125 19 150 35 29 79 27 135 -7z
m599 -9 c34 -17 60 -38 70 -57 30 -56 48 -75 82 -87 41 -14 126 -82 134 -108
3 -10 46 -59 94 -109 122 -123 141 -164 141 -298 l0 -103 -47 -34 c-74 -54
-92 -62 -111 -49 -20 12 -20 41 -1 131 10 50 10 75 1 119 -11 55 -55 133 -74
133 -12 0 0 -38 22 -70 29 -43 29 -64 -1 -126 -16 -32 -29 -64 -29 -70 0 -17
-24 -34 -36 -26 -5 4 -24 37 -42 74 -18 37 -37 70 -42 73 -5 3 -16 29 -26 58
-14 41 -33 68 -96 129 -94 92 -99 114 -24 110 34 -1 47 1 44 10 -9 27 -52 39
-119 32 -38 -3 -83 -1 -108 6 -36 10 -45 18 -62 54 -22 51 -45 176 -36 199 5
13 20 17 64 18 32 0 67 4 78 9 34 15 68 10 124 -18z m-2397 -3 c29 -6 56 -17
60 -23 5 -6 5 -38 2 -70 -5 -41 -4 -57 4 -52 6 3 14 35 17 71 4 36 12 68 17
71 30 19 78 -27 78 -75 0 -9 -29 -48 -65 -85 -36 -37 -75 -88 -88 -114 -32
-64 -88 -165 -98 -176 -18 -20 -196 130 -186 157 3 9 28 22 55 30 90 27 128
52 146 97 17 42 13 112 -6 137 -10 12 -5 43 6 43 3 0 29 -5 58 -11z m720 -34
c22 -128 2 -193 -82 -259 -48 -38 -121 -75 -145 -75 -3 0 -20 -2 -38 -5 -17
-3 -74 -7 -124 -10 -70 -4 -93 -3 -93 7 1 14 103 91 175 132 79 44 151 111
190 175 39 64 59 81 90 77 15 -1 22 -12 27 -42z m-324 13 c2 -9 -10 -31 -27
-50 -35 -40 -150 -103 -164 -89 -5 5 7 36 32 77 40 67 43 69 89 75 59 7 66 6
70 -13z m-475 -102 c-3 -39 -39 -74 -82 -82 -20 -3 -62 -12 -94 -20 -32 -8
-62 -12 -67 -9 -5 3 3 27 19 53 27 46 28 47 87 52 33 3 70 13 84 23 35 24 55
18 53 -17z m1935 -101 c27 -32 28 -60 2 -124 -27 -69 -56 -112 -99 -144 -20
-15 -54 -54 -76 -87 -46 -67 -93 -98 -163 -107 -43 -5 -53 -2 -72 17 -20 20
-22 29 -17 86 8 79 25 113 96 187 31 32 67 79 81 105 19 35 33 48 58 54 18 5
47 18 65 29 42 26 94 19 125 -16z m-1117 -107 c16 -29 5 -105 -22 -159 -22
-46 -154 -162 -211 -186 -57 -24 -155 -42 -228 -42 -98 1 -211 -24 -269 -58
-86 -52 -157 -67 -180 -40 -14 17 0 30 91 85 127 76 218 113 351 142 162 36
270 104 388 248 31 37 63 41 80 10z m-211 -75 c-1 -48 -155 -137 -280 -162
-25 -5 -81 -19 -125 -31 -137 -38 -199 -46 -224 -31 -22 14 1 37 69 71 32 16
70 40 86 53 44 36 103 64 163 78 96 21 311 36 311 22z m1798 -31 c16 -16 18
-35 16 -168 -2 -82 -6 -169 -9 -193 -11 -76 -69 -233 -109 -294 -37 -58 -54
-70 -161 -113 -20 -7 -19 -8 2 -11 11 -2 68 1 125 8 170 19 207 17 235 -15 32
-38 29 -60 -16 -95 -36 -29 -40 -36 -40 -79 0 -166 -25 -236 -110 -320 -39
-39 -80 -65 -249 -164 -80 -47 -92 -32 -43 50 16 27 31 58 33 67 4 21 10 25
108 65 103 42 143 63 148 78 6 18 -12 15 -86 -15 -77 -31 -125 -34 -149 -10
-33 33 -7 65 92 116 117 59 151 84 163 121 9 24 7 33 -9 55 -19 23 -27 25
-102 25 -45 1 -114 5 -153 9 -73 9 -181 50 -209 81 -15 16 -15 19 1 34 24 25
90 56 117 56 28 0 156 62 232 112 55 37 71 69 82 168 6 65 -11 95 -49 81 -35
-13 -147 -112 -199 -178 -64 -79 -114 -123 -142 -123 -12 0 -45 -10 -75 -22
-49 -21 -58 -21 -135 -10 -110 16 -154 29 -178 53 -27 27 -9 49 40 49 59 0
188 28 232 50 54 28 165 101 210 139 20 17 74 88 121 158 85 127 201 253 232
253 9 0 24 -8 34 -18z m-414 -48 c10 -4 16 -18 16 -38 0 -25 -11 -42 -51 -81
-27 -27 -61 -72 -75 -100 -20 -44 -31 -55 -67 -69 -59 -22 -107 -21 -107 2 0
10 11 29 24 41 15 15 28 43 35 82 10 47 20 66 49 95 63 61 128 86 176 68z
m-2773 -34 c87 -24 102 -39 135 -135 20 -60 15 -154 -11 -208 -10 -23 -47 -62
-88 -95 l-69 -56 6 -56 c3 -30 13 -104 21 -163 8 -59 12 -114 8 -122 -7 -21
-50 -30 -79 -16 -13 6 -33 25 -45 43 -17 27 -19 43 -14 88 4 30 6 82 6 115 -1
54 2 65 39 119 22 32 40 64 40 71 0 33 -32 115 -45 115 -17 0 -19 -9 -5 -44 7
-21 5 -31 -13 -53 -30 -37 -51 -123 -48 -196 2 -70 -19 -76 -31 -9 -4 23 -12
50 -18 61 -5 11 -10 48 -9 83 1 35 -2 75 -6 91 -4 15 -2 40 4 55 6 15 15 39
21 55 8 24 12 26 29 15 11 -7 23 -10 26 -6 5 5 -24 127 -40 170 -10 27 11 29
66 8 29 -11 55 -18 57 -15 3 2 -3 20 -12 40 -14 29 -15 39 -5 51 7 8 18 13 25
10 6 -2 32 -10 55 -16z m1657 -22 c17 -17 15 -113 -3 -147 -14 -29 -110 -121
-125 -121 -5 0 -30 -18 -56 -41 -26 -23 -66 -49 -88 -60 -110 -50 -209 -88
-218 -83 -16 10 45 103 102 156 63 58 165 142 250 206 31 22 66 55 78 72 24
32 41 37 60 18z m1196 -55 c-12 -63 -54 -166 -77 -188 -12 -12 -36 -37 -54
-57 -41 -46 -147 -109 -235 -138 -58 -19 -79 -21 -152 -15 -61 5 -93 12 -110
26 -24 19 -108 136 -136 190 -8 16 -18 29 -21 29 -10 0 -10 -149 0 -168 5 -9
12 -46 16 -82 3 -35 13 -76 20 -90 7 -14 54 -68 104 -119 91 -93 108 -124 71
-136 -42 -13 -109 7 -183 56 -153 100 -205 182 -246 386 -35 171 -25 263 31
282 17 6 37 11 45 11 27 0 103 -61 121 -97 l19 -36 7 43 c11 69 92 135 141
116 9 -3 25 -27 36 -53 46 -107 72 -155 103 -188 51 -54 98 -50 238 21 116 60
183 117 214 184 33 70 59 82 48 23z m-1060 -39 c11 -10 16 -35 17 -77 2 -150
3 -153 55 -337 18 -64 16 -114 -6 -118 -20 -3 -180 149 -180 172 0 15 -15 52
-26 65 -7 8 -44 -33 -44 -49 0 -9 -7 -25 -15 -36 -20 -27 -18 -101 5 -151 82
-181 286 -304 581 -350 93 -15 98 -14 144 6 51 23 88 26 149 12 76 -18 71 -36
-24 -101 -72 -48 -92 -52 -182 -35 -41 8 -114 19 -163 25 -48 6 -104 19 -124
30 -21 10 -66 22 -102 26 -58 6 -127 33 -259 102 -25 13 -87 99 -127 177 -29
54 -38 126 -25 189 6 28 16 77 22 109 7 32 26 81 43 109 31 50 32 50 75 45 50
-5 50 -6 66 92 10 58 15 68 45 88 40 27 54 28 75 7z m-599 -124 c0 -8 -27 -29
-60 -45 -104 -53 -181 -112 -236 -182 -29 -37 -56 -70 -59 -73 -3 -3 -17 -21
-30 -40 -13 -19 -36 -49 -51 -65 -20 -21 -35 -55 -49 -110 -24 -97 -25 -123
-4 -189 44 -135 72 -175 167 -230 70 -41 89 -70 85 -129 -4 -64 -23 -78 -64
-49 -16 11 -45 23 -65 26 -80 14 -169 179 -190 350 -6 53 -21 115 -36 149 -55
129 -36 232 67 356 30 36 68 84 84 105 35 47 84 70 241 112 129 35 200 40 200
14z m2395 -95 c14 -14 25 -38 26 -53 1 -15 3 -31 3 -35 2 -16 21 4 21 22 0 25
66 93 86 89 10 -2 24 -24 35 -56 16 -47 17 -57 3 -93 -7 -23 -14 -52 -14 -64
0 -33 -23 -49 -50 -35 -15 8 -25 9 -32 2 -7 -7 3 -19 31 -36 25 -16 41 -34 41
-46 0 -24 -56 -67 -94 -72 -42 -4 -43 -25 -2 -45 36 -17 53 -44 41 -63 -12
-19 -104 -60 -134 -60 -39 0 -96 49 -112 97 -15 45 -6 123 15 135 9 5 16 16
16 23 0 8 17 33 37 56 l37 41 0 109 c-1 118 5 128 46 84z m-572 -43 c7 -45
-26 -115 -67 -144 -47 -33 -131 -41 -131 -12 0 30 40 82 102 134 64 54 91 60
96 22z m-1868 12 c0 -19 -88 -135 -128 -167 -55 -46 -61 -55 -89 -127 -38
-100 -41 -114 -47 -185 -10 -144 -38 -178 -90 -111 -21 28 -26 46 -26 89 0 64
43 180 101 272 35 55 174 194 223 222 22 13 56 17 56 7z m1074 -118 c81 -80
96 -90 231 -151 17 -7 50 -21 75 -29 108 -38 96 -58 -67 -106 -59 -18 -104 -7
-167 40 -125 92 -175 165 -184 265 -4 54 -2 65 11 65 8 0 54 -38 101 -84z
m-789 44 c15 -16 16 -28 9 -67 -4 -27 -8 -115 -9 -198 0 -164 -11 -209 -43
-183 -9 7 -23 21 -30 31 -7 9 -31 26 -53 37 -21 11 -51 39 -67 62 -15 22 -35
52 -44 67 -32 47 -17 133 31 175 29 27 152 94 172 95 9 1 24 -8 34 -19z m225
-57 c0 -16 90 -102 145 -138 31 -21 59 -44 62 -51 8 -23 96 -81 159 -108 57
-23 155 -54 242 -76 35 -9 42 -15 42 -35 0 -15 -11 -32 -31 -46 l-31 -22 -46
24 c-37 18 -64 23 -128 24 -68 1 -87 5 -126 28 -26 15 -60 27 -76 27 -16 0
-41 9 -55 20 -14 11 -32 20 -41 20 -18 0 -116 96 -116 114 0 7 -11 34 -25 60
-24 46 -35 142 -18 159 9 9 43 9 43 0z m-1543 -29 c29 -22 67 -84 133 -216
l14 -30 71 7 c67 6 71 5 93 -19 12 -14 28 -26 35 -26 7 0 32 -16 54 -35 35
-29 41 -41 46 -86 4 -28 13 -62 22 -75 24 -37 18 -66 -31 -169 -51 -105 -74
-125 -143 -125 -34 0 -47 7 -86 47 -26 26 -53 60 -61 75 -23 45 -90 107 -135
125 -55 21 -78 75 -90 208 -6 55 -16 138 -24 185 -12 81 -12 86 6 99 10 7 19
24 19 37 0 33 33 32 77 -2z m439 -48 c3 -8 1 -38 -4 -68 -6 -29 -7 -75 -2
-103 4 -27 5 -55 3 -62 -10 -26 -43 -13 -67 26 -14 22 -30 42 -36 46 -27 17
-31 56 -8 96 33 59 101 98 114 65z m524 -44 c0 -10 -11 -41 -25 -68 -28 -54
-30 -80 -14 -139 12 -43 33 -72 117 -164 58 -65 72 -99 72 -182 0 -31 9 -82
20 -114 25 -73 25 -90 -1 -116 -17 -17 -28 -19 -65 -13 -24 3 -44 4 -44 1 0
-4 10 -17 23 -31 12 -13 32 -38 45 -55 12 -16 45 -45 72 -62 56 -36 62 -55 24
-69 -41 -16 -79 -12 -139 14 -51 23 -73 23 -57 0 12 -17 80 -64 93 -64 19 0
79 -49 79 -65 0 -28 -42 -45 -110 -45 -116 0 -170 49 -170 156 0 53 10 69 45
76 32 5 30 44 -4 84 -43 48 -38 94 11 94 26 0 22 23 -8 51 -37 34 -54 72 -54
119 0 46 -19 99 -43 119 -30 24 -38 81 -22 145 8 31 15 91 15 132 0 84 21 138
72 186 35 32 68 37 68 10z m67 -91 c17 -11 43 -39 57 -64 20 -34 39 -49 86
-71 33 -15 60 -32 60 -36 0 -5 21 -23 46 -41 48 -33 74 -77 74 -127 0 -46 -57
-147 -107 -192 -65 -57 -76 -51 -78 36 -1 60 -6 78 -31 116 -67 104 -85 128
-94 128 -24 0 -100 158 -100 208 0 21 31 62 48 62 4 0 21 -9 39 -19z m1956
-142 c14 -22 -19 -87 -57 -110 -17 -10 -69 -31 -114 -45 -76 -24 -89 -26 -134
-15 -27 6 -64 11 -82 11 -37 0 -156 57 -156 75 0 22 24 35 65 35 22 0 49 6 60
14 38 26 100 39 225 46 163 9 181 8 193 -11z m-1440 -138 c59 -30 107 -60 107
-67 0 -7 -9 -18 -19 -24 -60 -31 -166 16 -207 93 -15 28 -12 62 4 55 4 -2 56
-27 115 -57z m-25 -107 c30 -21 72 -32 165 -44 42 -5 86 -14 97 -20 26 -14 26
-40 0 -40 -12 0 -35 -7 -52 -16 -25 -13 -47 -15 -105 -10 -41 4 -85 11 -98 16
-28 11 -108 108 -99 121 9 15 68 10 92 -7z m552 -28 c47 -12 62 -34 40 -61
-20 -25 -162 -92 -210 -100 -24 -4 -92 -31 -150 -61 -134 -67 -148 -70 -196
-46 -22 11 -57 25 -79 32 -50 16 -73 37 -105 94 -23 42 -23 47 -8 62 15 15 21
15 80 -5 86 -28 175 -41 283 -41 105 0 155 21 155 65 0 14 -3 25 -7 25 -5 0
-17 7 -27 15 -16 12 -17 17 -6 30 12 14 27 15 99 9 47 -4 106 -12 131 -18z
m976 -175 c-3 -25 -14 -57 -24 -71 -10 -14 -70 -52 -134 -85 -64 -33 -141 -79
-172 -103 -127 -97 -165 -68 -79 61 32 49 49 63 103 90 68 33 255 150 265 167
4 7 13 6 27 -1 18 -10 20 -17 14 -58z m-1735 9 c47 -26 6 -111 -73 -151 -58
-30 -70 -21 -53 36 18 60 43 101 69 114 28 13 34 13 57 1z m1619 -236 c0 -66
-31 -119 -88 -149 -26 -14 -59 -34 -73 -46 -23 -18 -34 -20 -97 -13 -57 5 -72
10 -72 23 0 17 42 48 105 77 21 10 69 46 105 80 68 64 99 86 112 78 5 -3 8
-25 8 -50z m-2305 -211 c22 -17 42 -42 49 -63 10 -31 16 -36 58 -43 27 -5 55
-18 68 -32 l22 -23 -41 -26 c-30 -19 -48 -24 -71 -19 -26 5 -32 2 -37 -16 -3
-11 -9 -21 -14 -21 -16 0 -147 69 -155 81 -10 17 30 47 73 55 37 7 53 28 35
46 -11 11 -97 -10 -150 -38 -46 -24 -104 28 -70 63 22 21 129 62 164 63 18 0
46 -11 69 -27z m2260 -15 c0 -9 -42 -60 -94 -112 -71 -73 -114 -107 -178 -142
-46 -25 -88 -42 -94 -38 -13 8 -2 118 15 151 13 26 89 83 110 83 8 0 52 18 98
40 88 42 143 49 143 18z m-327 -25 c-2 -10 -23 -29 -48 -43 -25 -14 -73 -52
-107 -85 -46 -46 -64 -71 -72 -105 -25 -97 -37 -124 -63 -143 -62 -46 -78 39
-28 141 17 33 36 80 43 103 12 42 14 44 127 96 124 56 153 63 148 36z m-1628
-33 c7 -17 28 -44 47 -60 37 -33 40 -58 8 -70 -29 -11 -95 14 -122 45 -41 46
-25 115 26 115 22 0 31 -7 41 -30z m303 -60 c-3 -52 -22 -149 -32 -169 -14
-26 -61 -51 -96 -51 -37 0 -104 23 -109 37 -3 7 6 21 20 30 84 59 152 125 158
154 5 26 10 30 33 27 23 -2 28 -8 26 -28z m1230 -154 c-1 -61 -6 -92 -15 -97
-19 -12 -86 -11 -93 1 -4 6 -4 33 0 61 8 59 58 130 90 126 18 -2 20 -9 18 -91z
m-1598 41 c42 -24 54 -49 35 -72 -16 -20 -49 -19 -71 1 -9 8 -43 23 -75 33
-32 9 -59 22 -61 28 -3 7 17 15 49 21 77 14 79 14 123 -11z"/>
<path d="M780 2538 c0 -27 4 -38 15 -38 19 0 19 30 0 56 -13 18 -14 17 -15
-18z"/>
<path d="M1055 1930 c-8 -13 4 -57 20 -70 8 -6 23 -42 35 -78 21 -64 51 -132
58 -132 14 0 63 38 68 52 8 26 -12 55 -43 63 -36 9 -53 23 -53 45 0 10 -6 23
-14 29 -8 7 -24 32 -35 57 -22 46 -26 50 -36 34z"/>
</g>
</svg>
